<mxfile host="app.diagrams.net" modified="2023-07-31T00:19:04.558Z" agent="Mozilla/5.0 (Windows NT 10.0; Win64; x64) AppleWebKit/537.36 (KHTML, like Gecko) Chrome/115.0.0.0 Safari/537.36" version="21.6.6" etag="-2bH0D2WECyqOJ6cNdzI" type="github">
  <diagram name="페이지-1" id="3ReIoitp08oCqXPccZK2">
    <mxGraphModel>
      <root>
        <mxCell id="0" />
        <mxCell id="1" parent="0" />
      </root>
    </mxGraphModel>
  </diagram>
</mxfile>
